<svg width="744" height="744" viewBox="0 0 744 744" fill="none" xmlns="http://www.w3.org/2000/svg">
<path d="M367.273 452.988C351.255 452.988 335.597 448.238 322.278 439.339C308.96 430.44 298.58 417.791 292.45 402.993C286.32 388.194 284.716 371.91 287.841 356.2C290.966 340.49 298.68 326.06 310.006 314.733C321.332 303.407 335.763 295.694 351.473 292.569C367.183 289.444 383.467 291.048 398.265 297.177C413.064 303.307 425.712 313.687 434.611 327.006C443.51 340.324 448.26 355.982 448.26 372C448.219 393.467 439.673 414.042 424.494 429.222C409.315 444.401 388.739 452.947 367.273 452.988ZM367.273 306.513C354.32 306.513 341.659 310.353 330.89 317.549C320.12 324.745 311.727 334.973 306.77 346.939C301.814 358.905 300.517 372.073 303.044 384.776C305.57 397.479 311.807 409.148 320.966 418.307C330.125 427.465 341.793 433.702 354.497 436.229C367.2 438.756 380.367 437.459 392.334 432.503C404.3 427.546 414.528 419.152 421.724 408.383C428.919 397.614 432.76 384.952 432.76 372C432.719 354.644 425.807 338.011 413.534 325.739C401.262 313.466 384.628 306.553 367.273 306.513Z" fill="#D1DEFF" fill-opacity="0.52"/>
<path d="M367.273 728.5C319.61 728.5 276.753 665.26 252.495 559.395C244.023 521.448 238.35 482.931 235.523 444.152C233.74 420.902 232.888 396.335 232.888 372C232.888 347.665 233.74 323.408 235.523 299.925C238.344 261.121 244.017 222.577 252.495 184.605C258.262 158.976 266.036 133.84 275.745 109.43C276.516 107.518 278.015 105.991 279.911 105.185C281.808 104.378 283.947 104.358 285.859 105.129C287.77 105.9 289.298 107.398 290.104 109.295C290.911 111.192 290.931 113.331 290.16 115.243C280.786 138.891 273.322 163.252 267.84 188.092C259.542 225.301 253.973 263.067 251.178 301.087C249.473 324.337 248.62 347.587 248.62 372C248.62 396.413 249.473 419.818 251.178 442.99C253.977 480.984 259.546 518.724 267.84 555.908C289.773 652.783 327.98 713 367.273 713C406.565 713 444.773 652.783 466.86 555.908C475.159 518.699 480.728 480.933 483.523 442.913C485.228 419.663 486.08 395.948 486.08 372C486.08 348.052 485.228 324.182 483.523 301.01C480.724 263.016 475.155 225.276 466.86 188.092C444.695 91.2175 406.565 31 367.273 31C353.4 31 339.605 38.75 326.275 53.01C324.888 54.531 322.953 55.4386 320.896 55.5331C318.84 55.6275 316.83 54.9012 315.309 53.5138C313.788 52.1263 312.88 50.1915 312.786 48.135C312.691 46.0784 313.418 44.0685 314.805 42.5475C331.235 24.5675 348.75 15.5 367.273 15.5C414.858 15.5 457.715 78.74 481.973 184.605C490.445 222.552 496.118 261.069 498.945 299.848C500.728 323.098 501.58 347.665 501.58 372C501.58 396.335 500.728 420.592 498.945 444.075C496.124 482.879 490.451 521.423 481.973 559.395C457.715 665.26 414.858 728.5 367.273 728.5Z" fill="#D1DEFF" fill-opacity="0.52"/>
<path d="M131.13 585.358H130.588C94.7825 582.8 70.525 571.02 58.5125 550.25C34.72 508.943 67.9675 440.2 147.25 366.342C147.468 366.143 147.701 365.962 147.948 365.8C176.326 339.665 206.609 315.678 238.545 294.035C257.843 280.86 278.458 267.917 299.77 255.285C321.083 242.652 342.55 232.035 363.63 221.573C398.678 204.581 434.945 190.23 472.13 178.638C575.98 147.25 652.163 152.443 675.955 193.75C687.27 213.203 686.185 238.312 672.855 268.15C672.507 269.168 671.95 270.102 671.221 270.893C670.492 271.684 669.606 272.314 668.62 272.744C667.634 273.174 666.569 273.394 665.493 273.39C664.418 273.385 663.354 273.157 662.372 272.72C661.389 272.283 660.508 271.645 659.785 270.849C659.062 270.053 658.512 269.114 658.172 268.094C657.831 267.074 657.707 265.993 657.806 264.922C657.906 263.851 658.227 262.813 658.75 261.873C669.988 236.763 671.305 216.458 662.625 201.5C642.94 167.4 571.718 164.455 476.625 193.75C440.261 205.149 404.797 219.241 370.528 235.91C349.835 245.753 328.678 256.913 307.753 269.003C286.828 281.092 266.6 293.88 248 306.823C216.45 328.18 186.553 351.885 158.565 377.735L157.868 378.278C85.25 445.625 52.3125 508.555 71.92 542.5C83.4675 562.495 110.67 568.385 131.673 569.858C132.69 569.893 133.691 570.129 134.618 570.551C135.544 570.974 136.379 571.574 137.073 572.319C137.768 573.064 138.309 573.938 138.665 574.892C139.022 575.846 139.187 576.861 139.151 577.879C139.116 578.897 138.88 579.897 138.458 580.824C138.035 581.751 137.434 582.585 136.69 583.279C135.945 583.974 135.07 584.515 134.116 584.871C133.163 585.228 132.148 585.393 131.13 585.358Z" fill="#D1DEFF" fill-opacity="0.52"/>
<path d="M205.065 579.312C203.009 579.497 200.965 578.858 199.38 577.536C197.796 576.213 196.802 574.315 196.617 572.26C196.432 570.205 197.071 568.16 198.394 566.576C199.717 564.991 201.614 563.997 203.67 563.812C221.991 560.239 240.102 555.659 257.92 550.095C294.364 538.772 329.907 524.731 364.25 508.09C385.02 498.247 406.1 487.087 427.025 474.997C447.95 462.908 468.255 450.12 487.242 437.177C518.783 415.802 548.702 392.126 576.755 366.342C591.076 353.176 604.635 339.203 617.365 324.492C618.701 322.93 620.603 321.963 622.652 321.803C624.701 321.643 626.73 322.304 628.292 323.64C629.854 324.976 630.822 326.878 630.982 328.927C631.142 330.976 630.481 333.005 629.145 334.567C616.002 349.718 602.031 364.129 587.295 377.735C558.682 404.025 528.167 428.167 496 449.965C476.702 463.14 456.087 476.083 434.775 488.715C413.462 501.348 392.072 511.965 370.992 522.428C335.937 539.402 299.671 553.753 262.492 565.362C244.179 571.133 225.548 575.843 206.692 579.467C206.145 579.516 205.593 579.463 205.065 579.312Z" fill="#D1DEFF" fill-opacity="0.52"/>
<path d="M589 585.745C570.8 585.528 552.651 583.765 534.75 580.475C465 568.075 381.532 535.37 300.08 488.25C126.945 388.43 20.8474 259.005 58.5124 193.75C77.1899 161.432 127.332 150.66 199.795 163.525C269.545 175.925 353.012 208.63 434.387 255.595C515.84 302.637 585.822 358.437 631.547 412.765C678.822 469.107 694.632 517.932 675.955 550.25C662.47 573.5 632.4 585.745 589 585.745ZM145.157 173.755C108.267 173.755 82.4599 183.21 71.9199 201.5C39.6799 257.3 147.715 382.54 307.83 474.92C387.732 521.42 469.262 553.117 537.385 565.207C602.02 576.677 647.667 568.385 662.547 542.5C677.427 516.615 661.85 472.75 620 422.762C575.515 369.752 507.005 315.192 427.025 269.08C347.045 222.967 265.205 190.882 197.082 178.792C179.955 175.594 162.58 173.909 145.157 173.755Z" fill="#D1DEFF" fill-opacity="0.52"/>
<path d="M646.583 345.34C637.386 345.34 628.395 342.613 620.749 337.503C613.102 332.394 607.142 325.132 603.622 316.635C600.103 308.138 599.182 298.788 600.976 289.768C602.77 280.748 607.199 272.463 613.702 265.96C620.205 259.456 628.491 255.028 637.511 253.233C646.531 251.439 655.881 252.36 664.377 255.88C672.874 259.399 680.136 265.359 685.246 273.006C690.355 280.653 693.083 289.643 693.083 298.84C693.083 311.173 688.183 323 679.463 331.72C670.743 340.441 658.915 345.34 646.583 345.34ZM646.583 267.84C640.451 267.84 634.458 269.658 629.36 273.064C624.262 276.471 620.289 281.312 617.942 286.977C615.596 292.641 614.982 298.874 616.178 304.888C617.374 310.901 620.327 316.425 624.662 320.76C628.998 325.096 634.521 328.048 640.535 329.244C646.548 330.44 652.781 329.827 658.446 327.48C664.11 325.134 668.952 321.161 672.358 316.063C675.764 310.965 677.583 304.971 677.583 298.84C677.613 294.749 676.834 290.693 675.29 286.905C673.746 283.117 671.467 279.672 668.585 276.769C665.704 273.866 662.276 271.562 658.5 269.989C654.723 268.417 650.673 267.607 646.583 267.607V267.84Z" fill="#D1DEFF" fill-opacity="0.52"/>
<path d="M168.33 621.395C159.44 621.395 150.749 618.759 143.357 613.82C135.965 608.88 130.204 601.86 126.802 593.647C123.399 585.433 122.509 576.395 124.244 567.676C125.978 558.956 130.259 550.947 136.545 544.66C142.832 538.374 150.841 534.093 159.561 532.359C168.28 530.624 177.318 531.514 185.532 534.917C193.745 538.319 200.765 544.08 205.704 551.472C210.644 558.864 213.28 567.555 213.28 576.445C213.28 582.348 212.117 588.193 209.858 593.647C207.599 599.1 204.288 604.055 200.114 608.229C195.94 612.403 190.985 615.714 185.532 617.973C180.078 620.232 174.233 621.395 168.33 621.395ZM168.33 546.995C162.505 546.995 156.811 548.722 151.968 551.958C147.125 555.194 143.351 559.794 141.122 565.175C138.893 570.556 138.309 576.478 139.446 582.19C140.582 587.903 143.387 593.151 147.506 597.269C151.624 601.388 156.872 604.193 162.584 605.329C168.297 606.465 174.219 605.882 179.6 603.653C184.981 601.424 189.581 597.65 192.817 592.806C196.053 587.963 197.78 582.27 197.78 576.445C197.78 568.634 194.677 561.144 189.154 555.621C183.631 550.098 176.141 546.995 168.33 546.995Z" fill="#D1DEFF" fill-opacity="0.52"/>
<path d="M298.917 124C289.928 124.015 281.137 121.363 273.657 116.378C266.177 111.394 260.344 104.302 256.897 96.0004C253.45 87.6987 252.544 78.5609 254.294 69.744C256.044 60.9272 260.371 52.8279 266.727 46.4718C273.083 40.1157 281.182 35.7888 289.999 34.0389C298.816 32.2891 307.954 33.195 316.255 36.6419C324.557 40.0889 331.649 45.9218 336.633 53.4022C341.618 60.8825 344.27 69.6737 344.255 78.6625C344.234 90.6805 339.451 102.2 330.953 110.698C322.455 119.196 310.935 123.98 298.917 124ZM298.917 48.7475C292.997 48.7322 287.206 50.4736 282.276 53.7514C277.347 57.0291 273.5 61.6958 271.224 67.1607C268.948 72.6256 268.345 78.6429 269.49 84.451C270.636 90.259 273.479 95.5966 277.659 99.788C281.84 103.979 287.17 106.836 292.975 107.997C298.78 109.157 304.799 108.57 310.27 106.308C315.741 104.046 320.417 100.212 323.708 95.2904C326.998 90.3693 328.755 84.5824 328.755 78.6625C328.785 74.7247 328.036 70.8197 326.551 67.1728C325.065 63.5258 322.872 60.2091 320.098 57.4137C317.324 54.6184 314.025 52.3998 310.39 50.8858C306.754 49.3718 302.855 48.5924 298.917 48.5925V48.7475Z" fill="#D1DEFF" fill-opacity="0.52"/>
</svg>
