<svg width="22" height="22" viewBox="0 0 22 22" fill="none" xmlns="http://www.w3.org/2000/svg">
<g clip-path="url(#clip0_76_70)">
<path d="M8.90732 0.468353C13.5694 0.468353 17.3464 4.24531 17.3464 8.90742C17.3464 10.9227 16.6417 12.7703 15.4644 14.2227L21.2651 20.0234C21.6089 20.3672 21.6089 20.9215 21.2651 21.2652C20.9214 21.609 20.3671 21.609 20.0233 21.2652L14.2226 15.4644C12.7702 16.6418 10.9226 17.3465 8.90732 17.3465C4.24521 17.3465 0.468262 13.5695 0.468262 8.90742C0.468262 4.24531 4.24951 0.468353 8.90732 0.468353ZM8.90732 15.5934C12.5983 15.5934 15.5933 12.5984 15.5933 8.90742C15.5933 5.2164 12.5983 2.22148 8.90732 2.22148C5.21631 2.22148 2.22139 5.2164 2.22139 8.90742C2.22139 12.5984 5.21631 15.5934 8.90732 15.5934Z" fill="#3E5DAF"/>
</g>
<defs>
<clipPath id="clip0_76_70">
<rect width="22" height="22" fill="white" transform="matrix(-1 0 0 1 22 0)"/>
</clipPath>
</defs>
</svg>
