<svg width="139" height="139" viewBox="0 0 139 139" fill="none" xmlns="http://www.w3.org/2000/svg">
<g filter="url(#filter0_d_38_319)">
<circle cx="69.5" cy="64.5" r="49.5" fill="#4063BD"/>
</g>
<path d="M69 44.4C76.47 44.4 82.5 50.43 82.5 57.9C82.5 65.37 76.47 71.4 69 71.4C61.53 71.4 55.5 65.37 55.5 57.9C55.5 50.43 61.53 44.4 69 44.4Z" fill="#94B1FE"/>
<path d="M96.09 47.1H91.77V42.78C91.77 41.7 91.32 41.25 90.24 41.25H85.02H82.95H81.69C79.62 41.25 77.64 41.79 75.75 42.69L75.3 42.96L74.94 43.14C73.77 43.86 72.78 44.76 71.88 45.75L71.79 45.84L71.7 45.93C71.25 46.47 70.8 47.01 70.44 47.64L70.08 48.18C69.81 48.54 69.54 48.99 69.36 49.35L69 50.07L68.55 49.44C68.28 49.08 68.01 48.63 67.83 48.27L67.47 47.73C67.11 47.1 66.66 46.56 66.21 46.02L66.12 45.93L66.03 45.84C65.13 44.85 64.14 43.95 62.97 43.23L62.61 43.05L62.16 42.78C60.36 41.88 58.29 41.34 56.22 41.34H54.96H52.89H47.67C46.59 41.34 46.14 41.79 46.14 42.87V47.1H41.82C40.65 47.1 40.2 47.55 40.2 48.72V81.39C40.2 82.56 40.65 83.01 41.82 83.01H49.2H53.52C57.3 82.92 61.08 83.91 64.32 85.89C65.94 86.79 67.11 88.23 67.74 90.03C67.74 90.21 67.92 90.75 68.91 90.75H69.27C70.26 90.75 70.44 90.12 70.44 90.03C70.98 88.32 72.24 86.79 73.86 85.89C77.1 83.91 80.88 82.92 84.66 83.01H88.8H96.09C97.26 83.01 97.71 82.56 97.71 81.39V48.72C97.8 47.55 97.35 47.1 96.09 47.1ZM63.69 82.47L63.6 82.38L63.42 82.29C61.17 81.3 58.83 80.67 56.4 80.4C55.41 80.31 54.51 80.22 53.52 80.22H42.99V49.8H46.14V75.36C46.14 75.54 46.14 75.63 46.14 75.81C46.14 75.9 46.14 75.99 46.23 76.17C46.41 76.8 46.86 77.07 47.76 77.07H55.05C55.5 77.07 56.04 77.07 56.49 77.07C57.21 77.07 57.93 77.16 58.65 77.34C59.73 77.61 60.72 78.06 61.62 78.6L61.89 78.78C61.98 78.87 62.07 78.96 62.25 79.05C63.06 79.68 63.78 80.4 64.32 81.12C64.41 81.3 64.59 81.48 64.68 81.66L65.67 83.19L63.69 82.47ZM67.65 73.65V80.94L66.84 80.04L66.3 79.32L65.85 78.78L65.67 78.6C65.4 78.33 65.13 78.06 64.86 77.79L64.77 77.7C63.24 76.17 61.26 75.18 59.19 74.73L58.92 74.64C58.02 74.46 57.21 74.37 56.31 74.37H53.7H48.75V43.77H49.38H51.81H55.77L57.3 43.86C57.57 43.86 57.84 43.86 58.11 43.95L58.65 44.04C59.82 44.31 60.99 44.85 61.98 45.66C62.52 46.11 63.06 46.56 63.6 47.1C63.78 47.28 63.96 47.46 64.14 47.64L64.23 47.73C64.95 48.63 65.58 49.53 66.03 50.61C66.39 51.42 66.66 52.14 66.93 52.95V53.04C67.02 53.31 67.11 53.67 67.2 53.94C67.38 54.57 67.47 55.2 67.56 55.83C67.65 56.91 67.74 57.99 67.74 59.07C67.65 64.02 67.65 68.79 67.65 73.65ZM71.7 79.32L71.07 80.04L70.26 80.94V73.65C70.26 68.79 70.26 63.93 70.26 59.16C70.26 58.08 70.35 57 70.44 55.92C70.53 55.29 70.62 54.66 70.8 54.03C70.89 53.76 70.98 53.4 71.07 53.13V53.04C71.34 52.23 71.61 51.42 71.97 50.7C72.42 49.71 73.05 48.72 73.77 47.82L73.86 47.73C74.04 47.55 74.22 47.37 74.31 47.19C74.76 46.65 75.3 46.2 75.93 45.75C76.92 45.03 78 44.49 79.26 44.13L79.8 44.04C80.07 43.95 80.34 43.95 80.61 43.95L82.14 43.86H86.1H88.53H89.16V74.46H84.21H81.6C80.7 74.46 79.8 74.55 78.99 74.73L78.72 74.82C76.65 75.27 74.67 76.26 73.14 77.79H73.05C72.78 78.06 72.51 78.33 72.24 78.6L72.06 78.78L71.7 79.32ZM95.01 80.4H84.48C83.49 80.4 82.59 80.49 81.6 80.58C79.17 80.76 76.83 81.39 74.58 82.38L74.4 82.47L74.22 82.56L72.24 83.28L73.23 81.75C73.32 81.57 73.5 81.39 73.59 81.3C74.22 80.49 74.94 79.86 75.66 79.23C75.75 79.14 75.84 79.05 76.02 78.96C76.11 78.87 76.2 78.78 76.29 78.69C77.19 78.15 78.18 77.7 79.17 77.43C79.89 77.25 80.61 77.16 81.33 77.16C81.78 77.16 82.32 77.16 82.86 77.16H90.15C90.96 77.16 91.5 76.89 91.68 76.26C91.68 76.17 91.77 76.08 91.77 75.9C91.77 75.72 91.77 75.63 91.77 75.45V49.8H95.01V80.4Z" fill="white"/>
<defs>
<filter id="filter0_d_38_319" x="0" y="0" width="139" height="139" filterUnits="userSpaceOnUse" color-interpolation-filters="sRGB">
<feFlood flood-opacity="0" result="BackgroundImageFix"/>
<feColorMatrix in="SourceAlpha" type="matrix" values="0 0 0 0 0 0 0 0 0 0 0 0 0 0 0 0 0 0 127 0" result="hardAlpha"/>
<feOffset dy="5"/>
<feGaussianBlur stdDeviation="10"/>
<feComposite in2="hardAlpha" operator="out"/>
<feColorMatrix type="matrix" values="0 0 0 0 0.25098 0 0 0 0 0.388235 0 0 0 0 0.741176 0 0 0 0.6 0"/>
<feBlend mode="normal" in2="BackgroundImageFix" result="effect1_dropShadow_38_319"/>
<feBlend mode="normal" in="SourceGraphic" in2="effect1_dropShadow_38_319" result="shape"/>
</filter>
</defs>
</svg>
