<svg width="20" height="4" viewBox="0 0 20 4" fill="none" xmlns="http://www.w3.org/2000/svg">
<path d="M1.965 3.12C1.565 3.12 1.22 2.985 0.93 2.715C0.65 2.435 0.51 2.08 0.51 1.65C0.51 1.22 0.65 0.875 0.93 0.615C1.22 0.345 1.565 0.21 1.965 0.21C2.375 0.21 2.72 0.345 3 0.615C3.28 0.875 3.42 1.22 3.42 1.65C3.42 2.08 3.28 2.435 3 2.715C2.72 2.985 2.375 3.12 1.965 3.12ZM10.1388 3.12C9.73883 3.12 9.39383 2.985 9.10383 2.715C8.82383 2.435 8.68383 2.08 8.68383 1.65C8.68383 1.22 8.82383 0.875 9.10383 0.615C9.39383 0.345 9.73883 0.21 10.1388 0.21C10.5488 0.21 10.8938 0.345 11.1738 0.615C11.4538 0.875 11.5938 1.22 11.5938 1.65C11.5938 2.08 11.4538 2.435 11.1738 2.715C10.8938 2.985 10.5488 3.12 10.1388 3.12ZM18.3127 3.12C17.9127 3.12 17.5677 2.985 17.2777 2.715C16.9977 2.435 16.8577 2.08 16.8577 1.65C16.8577 1.22 16.9977 0.875 17.2777 0.615C17.5677 0.345 17.9127 0.21 18.3127 0.21C18.7227 0.21 19.0677 0.345 19.3477 0.615C19.6277 0.875 19.7677 1.22 19.7677 1.65C19.7677 2.08 19.6277 2.435 19.3477 2.715C19.0677 2.985 18.7227 3.12 18.3127 3.12Z" fill="white"/>
</svg>
