<svg width="42" height="42"  fill="none" xmlns="http://www.w3.org/2000/svg">
<path d="M27.552 20.16C30.869 20.16 33.558 17.471 33.558 14.154C33.558 10.837 30.869 8.14801 27.552 8.14801C24.235 8.14801 21.546 10.837 21.546 14.154C21.546 17.471 24.235 20.16 27.552 20.16Z" fill="white"/>
<path d="M29.21 15.512C28.118 15.512 27.194 16.31 26.984 17.36H19.886V16.898C19.886 15.302 18.584 14 16.988 14C15.602 14 14.426 14.966 14.174 16.268C13.88 16.184 13.628 16.184 13.334 16.184C11.36 16.184 9.764 17.78 9.764 19.754C9.764 20.132 9.848 20.51 9.974 20.888C8.756 21.644 8 22.988 8 24.416C8 25.928 8.798 27.314 10.1 28.028C9.89 28.49 9.806 28.994 9.806 29.498C9.806 31.472 11.402 33.068 13.376 33.068C13.67 33.068 13.964 33.026 14.216 32.984C14.51 34.286 15.644 35.252 17.03 35.252C18.626 35.252 19.928 33.95 19.928 32.354V31.892H24.716C24.926 32.942 25.85 33.74 26.942 33.74C28.202 33.74 29.21 32.732 29.21 31.472C29.21 30.212 28.202 29.204 26.942 29.204C25.85 29.204 24.926 30.002 24.716 31.052H19.886V25.172H22.406C22.616 26.222 23.54 27.02 24.632 27.02C25.892 27.02 26.9 26.012 26.9 24.752C26.9 23.492 25.892 22.484 24.632 22.484C23.54 22.484 22.616 23.282 22.406 24.332H19.886V18.452H26.984C27.194 19.502 28.118 20.3 29.21 20.3C30.47 20.3 31.478 19.292 31.478 18.032C31.478 16.562 30.47 15.512 29.21 15.512ZM26.9 30.002C27.656 30.002 28.286 30.632 28.286 31.388C28.286 32.144 27.656 32.774 26.9 32.774C26.144 32.774 25.514 32.144 25.514 31.388C25.514 30.632 26.144 30.002 26.9 30.002ZM24.632 23.198C25.388 23.198 26.018 23.828 26.018 24.584C26.018 25.34 25.388 25.97 24.632 25.97C23.876 25.97 23.246 25.34 23.246 24.584C23.246 23.828 23.876 23.198 24.632 23.198ZM18.962 32.312C18.962 33.404 18.08 34.286 16.988 34.286C15.896 34.286 15.014 33.404 15.014 32.312C15.014 32.144 14.93 32.018 14.804 31.934C14.72 31.892 14.636 31.85 14.552 31.85C14.51 31.85 14.426 31.85 14.384 31.892C14.048 32.018 13.712 32.102 13.334 32.102C11.864 32.102 10.688 30.926 10.688 29.456C10.688 28.952 10.814 28.448 11.108 28.028C11.192 27.902 11.192 27.776 11.15 27.65C11.108 27.524 11.024 27.398 10.898 27.356C9.68 26.852 8.924 25.676 8.924 24.374C8.924 23.156 9.638 21.98 10.772 21.434C11.15 21.308 12.2 21.014 12.914 21.35C13.208 21.476 13.418 21.728 13.544 22.064C13.754 22.694 13.754 23.198 13.544 23.576C13.292 24.08 12.704 24.332 12.284 24.458C12.032 24.542 11.906 24.794 11.948 25.004C11.99 25.214 12.2 25.34 12.41 25.34C12.452 25.34 12.494 25.34 12.536 25.34C13.124 25.172 13.964 24.794 14.384 24.038C14.72 23.408 14.72 22.652 14.426 21.812C14.216 21.224 13.838 20.804 13.334 20.552C12.494 20.174 11.444 20.342 10.898 20.51C10.814 20.258 10.772 20.006 10.772 19.712C10.772 18.242 11.948 17.066 13.418 17.066C13.796 17.066 14.132 17.15 14.468 17.276C14.594 17.318 14.762 17.318 14.888 17.234C15.014 17.15 15.098 17.024 15.098 16.856C15.098 15.764 15.98 14.882 17.072 14.882C18.164 14.882 19.046 15.764 19.046 16.856V17.99C17.576 17.99 16.82 19.208 16.61 19.922C16.526 20.174 16.694 20.426 16.946 20.468C16.988 20.468 17.03 20.468 17.072 20.468C17.282 20.468 17.45 20.342 17.534 20.132C17.534 20.09 17.912 18.872 19.088 18.872V28.7H16.442C15.392 28.7 14.51 27.818 14.51 26.768C14.51 26.516 14.3 26.306 14.048 26.306C13.796 26.306 13.586 26.516 13.586 26.768C13.586 28.322 14.846 29.624 16.442 29.624H19.088V32.312H18.962ZM29.21 19.166C28.454 19.166 27.824 18.536 27.824 17.78C27.824 17.024 28.454 16.394 29.21 16.394C29.966 16.394 30.596 17.024 30.596 17.78C30.554 18.578 29.966 19.166 29.21 19.166Z" fill="#333333"/>
</svg>
