<svg width="80" height="80" viewBox="0 0 80 80" fill="none" xmlns="http://www.w3.org/2000/svg">
<g filter="url(#filter0_d_40_82)">
<rect x="20" y="15" width="40" height="40" rx="7" fill="white"/>
</g>
<path d="M47.552 30.16C50.869 30.16 53.558 27.471 53.558 24.154C53.558 20.837 50.869 18.148 47.552 18.148C44.235 18.148 41.546 20.837 41.546 24.154C41.546 27.471 44.235 30.16 47.552 30.16Z" fill="white"/>
<path d="M49.21 25.512C48.118 25.512 47.194 26.31 46.984 27.36H39.886V26.898C39.886 25.302 38.584 24 36.988 24C35.602 24 34.426 24.966 34.174 26.268C33.88 26.184 33.628 26.184 33.334 26.184C31.36 26.184 29.764 27.78 29.764 29.754C29.764 30.132 29.848 30.51 29.974 30.888C28.756 31.644 28 32.988 28 34.416C28 35.928 28.798 37.314 30.1 38.028C29.89 38.49 29.806 38.994 29.806 39.498C29.806 41.472 31.402 43.068 33.376 43.068C33.67 43.068 33.964 43.026 34.216 42.984C34.51 44.286 35.644 45.252 37.03 45.252C38.626 45.252 39.928 43.95 39.928 42.354V41.892H44.716C44.926 42.942 45.85 43.74 46.942 43.74C48.202 43.74 49.21 42.732 49.21 41.472C49.21 40.212 48.202 39.204 46.942 39.204C45.85 39.204 44.926 40.002 44.716 41.052H39.886V35.172H42.406C42.616 36.222 43.54 37.02 44.632 37.02C45.892 37.02 46.9 36.012 46.9 34.752C46.9 33.492 45.892 32.484 44.632 32.484C43.54 32.484 42.616 33.282 42.406 34.332H39.886V28.452H46.984C47.194 29.502 48.118 30.3 49.21 30.3C50.47 30.3 51.478 29.292 51.478 28.032C51.478 26.562 50.47 25.512 49.21 25.512ZM46.9 40.002C47.656 40.002 48.286 40.632 48.286 41.388C48.286 42.144 47.656 42.774 46.9 42.774C46.144 42.774 45.514 42.144 45.514 41.388C45.514 40.632 46.144 40.002 46.9 40.002ZM44.632 33.198C45.388 33.198 46.018 33.828 46.018 34.584C46.018 35.34 45.388 35.97 44.632 35.97C43.876 35.97 43.246 35.34 43.246 34.584C43.246 33.828 43.876 33.198 44.632 33.198ZM38.962 42.312C38.962 43.404 38.08 44.286 36.988 44.286C35.896 44.286 35.014 43.404 35.014 42.312C35.014 42.144 34.93 42.018 34.804 41.934C34.72 41.892 34.636 41.85 34.552 41.85C34.51 41.85 34.426 41.85 34.384 41.892C34.048 42.018 33.712 42.102 33.334 42.102C31.864 42.102 30.688 40.926 30.688 39.456C30.688 38.952 30.814 38.448 31.108 38.028C31.192 37.902 31.192 37.776 31.15 37.65C31.108 37.524 31.024 37.398 30.898 37.356C29.68 36.852 28.924 35.676 28.924 34.374C28.924 33.156 29.638 31.98 30.772 31.434C31.15 31.308 32.2 31.014 32.914 31.35C33.208 31.476 33.418 31.728 33.544 32.064C33.754 32.694 33.754 33.198 33.544 33.576C33.292 34.08 32.704 34.332 32.284 34.458C32.032 34.542 31.906 34.794 31.948 35.004C31.99 35.214 32.2 35.34 32.41 35.34C32.452 35.34 32.494 35.34 32.536 35.34C33.124 35.172 33.964 34.794 34.384 34.038C34.72 33.408 34.72 32.652 34.426 31.812C34.216 31.224 33.838 30.804 33.334 30.552C32.494 30.174 31.444 30.342 30.898 30.51C30.814 30.258 30.772 30.006 30.772 29.712C30.772 28.242 31.948 27.066 33.418 27.066C33.796 27.066 34.132 27.15 34.468 27.276C34.594 27.318 34.762 27.318 34.888 27.234C35.014 27.15 35.098 27.024 35.098 26.856C35.098 25.764 35.98 24.882 37.072 24.882C38.164 24.882 39.046 25.764 39.046 26.856V27.99C37.576 27.99 36.82 29.208 36.61 29.922C36.526 30.174 36.694 30.426 36.946 30.468C36.988 30.468 37.03 30.468 37.072 30.468C37.282 30.468 37.45 30.342 37.534 30.132C37.534 30.09 37.912 28.872 39.088 28.872V38.7H36.442C35.392 38.7 34.51 37.818 34.51 36.768C34.51 36.516 34.3 36.306 34.048 36.306C33.796 36.306 33.586 36.516 33.586 36.768C33.586 38.322 34.846 39.624 36.442 39.624H39.088V42.312H38.962ZM49.21 29.166C48.454 29.166 47.824 28.536 47.824 27.78C47.824 27.024 48.454 26.394 49.21 26.394C49.966 26.394 50.596 27.024 50.596 27.78C50.554 28.578 49.966 29.166 49.21 29.166Z" fill="#333333"/>
<defs>
<filter id="filter0_d_40_82" x="0" y="0" width="80" height="80" filterUnits="userSpaceOnUse" color-interpolation-filters="sRGB">
<feFlood flood-opacity="0" result="BackgroundImageFix"/>
<feColorMatrix in="SourceAlpha" type="matrix" values="0 0 0 0 0 0 0 0 0 0 0 0 0 0 0 0 0 0 127 0" result="hardAlpha"/>
<feOffset dy="5"/>
<feGaussianBlur stdDeviation="10"/>
<feComposite in2="hardAlpha" operator="out"/>
<feColorMatrix type="matrix" values="0 0 0 0 0 0 0 0 0 0 0 0 0 0 0 0 0 0 0.25 0"/>
<feBlend mode="normal" in2="BackgroundImageFix" result="effect1_dropShadow_40_82"/>
<feBlend mode="normal" in="SourceGraphic" in2="effect1_dropShadow_40_82" result="shape"/>
</filter>
</defs>
</svg>
