<svg width="22" height="22" viewBox="0 0 22 22" fill="none" xmlns="http://www.w3.org/2000/svg">
<path d="M8.90745 0.468353C13.5696 0.468353 17.3465 4.24531 17.3465 8.90742C17.3465 10.9227 16.6418 12.7703 15.4645 14.2227L21.2653 20.0234C21.609 20.3672 21.609 20.9215 21.2653 21.2652C20.9215 21.609 20.3672 21.609 20.0235 21.2652L14.2227 15.4644C12.7703 16.6418 10.9227 17.3465 8.90745 17.3465C4.24534 17.3465 0.468384 13.5695 0.468384 8.90742C0.468384 4.24531 4.24963 0.468353 8.90745 0.468353ZM8.90745 15.5934C12.5985 15.5934 15.5934 12.5984 15.5934 8.90742C15.5934 5.2164 12.5985 2.22148 8.90745 2.22148C5.21643 2.22148 2.22151 5.2164 2.22151 8.90742C2.22151 12.5984 5.21643 15.5934 8.90745 15.5934Z" fill="white"/>
</svg>
