<svg width="139" height="139" viewBox="0 0 139 139" fill="none" xmlns="http://www.w3.org/2000/svg">
<g filter="url(#filter0_d_38_321)">
<circle cx="69.5" cy="64.5" r="49.5" fill="#4063BD"/>
</g>
<path d="M93.35 52.4V40.7C93.35 38.45 91.55 36.65 89.3 36.65H70.4C68.15 36.65 66.35 38.45 66.35 40.7V52.4C66.35 54.65 68.15 56.45 70.4 56.45H89.3C91.55 56.45 93.35 54.65 93.35 52.4Z" fill="#94B1FE"/>
<path d="M86.51 43.3101H72.74C72.2 43.3101 71.84 43.6701 71.84 44.2101C71.84 44.7501 72.2 45.1101 72.74 45.1101H86.51C87.05 45.1101 87.41 44.7501 87.41 44.2101C87.41 43.7601 86.96 43.3101 86.51 43.3101Z" fill="white"/>
<path d="M83 48.8H72.74C72.2 48.8 71.84 49.16 71.84 49.7C71.84 50.24 72.2 50.6 72.74 50.6H83C83.54 50.6 83.9 50.24 83.9 49.7C83.9 49.16 83.54 48.8 83 48.8Z" fill="white"/>
<path d="M53.66 59.33C57.08 59.33 59.87 56.63 59.87 53.3C59.87 49.97 57.08 47.27 53.66 47.27C50.24 47.27 47.45 49.97 47.45 53.3C47.45 56.63 50.33 59.33 53.66 59.33ZM53.66 48.98C56.18 48.98 58.07 50.87 58.07 53.21C58.07 55.55 56.09 57.44 53.66 57.44C51.14 57.44 49.25 55.55 49.25 53.21C49.25 50.87 51.23 48.98 53.66 48.98Z" fill="white"/>
<path d="M59.51 69.2301V67.0701C59.51 66.5301 59.15 66.1701 58.61 66.1701C58.07 66.1701 57.71 66.5301 57.71 67.0701V68.8701H54.56L53.66 65.8101C53.57 65.4501 53.21 65.1801 52.76 65.1801H37.1C36.83 65.1801 36.56 65.2701 36.38 65.5401C36.2 65.7201 36.2 65.9901 36.2 66.2601L39.62 78.0501C39.71 78.4101 40.07 78.68 40.52 78.68H56.18C56.45 78.68 56.72 78.5901 56.9 78.3201C57.08 78.0501 57.08 77.7801 57.08 77.5101L55.1 70.6701H57.98C58.79 70.6701 59.51 70.0401 59.51 69.2301ZM41.24 76.8801L38.27 66.8901H52.04L55.01 76.8801H41.24Z" fill="white"/>
<path d="M46.55 63.47C47.36 62.66 48.53 62.21 49.79 62.21H57.53C60.23 62.21 62.3 64.28 62.3 66.8C62.3 67.34 62.66 67.7 63.2 67.7C63.74 67.7 64.1 67.34 64.1 66.8C64.1 63.29 61.13 60.41 57.53 60.41H49.79C48.08 60.41 46.46 61.04 45.29 62.12C44.93 62.48 44.93 63.02 45.2 63.38C45.65 63.74 46.19 63.83 46.55 63.47Z" fill="white"/>
<path d="M71.75 68.6C75.98 68.6 79.49 65.27 79.49 61.13C79.49 56.99 75.98 53.66 71.75 53.66C67.52 53.66 64.01 56.99 64.01 61.13C64.01 65.27 67.52 68.6 71.75 68.6ZM71.75 55.46C75.08 55.46 77.69 58.07 77.69 61.13C77.69 64.19 75.08 66.8 71.75 66.8C68.42 66.8 65.81 64.19 65.81 61.13C65.81 57.98 68.42 55.46 71.75 55.46Z" fill="white"/>
<path d="M93.62 76.8801C93.44 76.6101 93.17 76.5201 92.9 76.5201H72.92C72.56 76.5201 72.2 76.7901 72.02 77.1501L70.85 81.2901H66.44V78.6801C66.44 78.1401 66.08 77.7801 65.54 77.7801C65 77.7801 64.64 78.1401 64.64 78.6801V81.3801C64.64 82.2801 65.45 83.0001 66.35 83.0001H70.4L69.23 86.9601H63.74C61.94 86.9601 60.5 85.5201 60.5 83.9001V78.4101C60.5 75.0801 63.29 72.2901 66.8 72.2901H76.7C78.41 72.2901 79.94 72.9201 81.02 73.9101C81.38 74.2701 81.92 74.1801 82.28 73.8201C82.64 73.4601 82.55 72.9201 82.19 72.5601C80.75 71.2101 78.77 70.4901 76.7 70.4901H66.8C62.3 70.4901 58.7 74.0001 58.7 78.4101V83.9001C58.7 86.6001 60.95 88.7601 63.74 88.7601H68.69L67.88 91.4601H62.03C61.49 91.4601 61.13 91.8201 61.13 92.3601C61.13 92.9001 61.49 93.2601 62.03 93.2601H68.6H88.58C88.94 93.2601 89.3 92.9901 89.48 92.6301L93.8 77.6901C93.8 77.4201 93.8 77.1501 93.62 76.8801ZM87.86 91.5501H69.77L73.64 78.3201H91.73L87.86 91.5501Z" fill="white"/>
<defs>
<filter id="filter0_d_38_321" x="0" y="0" width="139" height="139" filterUnits="userSpaceOnUse" color-interpolation-filters="sRGB">
<feFlood flood-opacity="0" result="BackgroundImageFix"/>
<feColorMatrix in="SourceAlpha" type="matrix" values="0 0 0 0 0 0 0 0 0 0 0 0 0 0 0 0 0 0 127 0" result="hardAlpha"/>
<feOffset dy="5"/>
<feGaussianBlur stdDeviation="10"/>
<feComposite in2="hardAlpha" operator="out"/>
<feColorMatrix type="matrix" values="0 0 0 0 0.243137 0 0 0 0 0.364706 0 0 0 0 0.686275 0 0 0 1 0"/>
<feBlend mode="normal" in2="BackgroundImageFix" result="effect1_dropShadow_38_321"/>
<feBlend mode="normal" in="SourceGraphic" in2="effect1_dropShadow_38_321" result="shape"/>
</filter>
</defs>
</svg>
