<svg width="1179" height="535" viewBox="0 0 1179 535" fill="none" xmlns="http://www.w3.org/2000/svg">
<rect x="1" width="1176" height="534" rx="50" fill="#E4ECFF"/>
<path d="M540.057 533.5C532.825 502.504 529 470.199 529 437C529 203.384 718.384 14 952 14C1034.69 14 1111.83 37.7249 1177 78.7389" stroke="white" stroke-opacity="0.43" stroke-width="4"/>
<path d="M587.596 534C579.379 503.05 575 470.536 575 437C575 228.789 743.789 60 952 60C1036.33 60 1114.2 87.6902 1177 134.475" stroke="white" stroke-opacity="0.43" stroke-width="4"/>
<path d="M635.44 534C626.052 503.323 621 470.751 621 437C621 254.194 769.194 106 952 106C1038.88 106 1117.95 139.475 1177 194.231" stroke="white" stroke-opacity="0.43" stroke-width="4"/>
<path d="M237 534C237 384.213 137.506 257.664 1 216.835" stroke="white" stroke-opacity="0.43" stroke-width="4"/>
<path d="M201.005 534C201.005 404.31 117.318 294.167 0.999969 254.625" stroke="white" stroke-opacity="0.43" stroke-width="4"/>
<path d="M165.009 534C165.009 424.49 97.0475 330.854 1 292.967" stroke="white" stroke-opacity="0.43" stroke-width="4"/>
</svg>
