<svg width="1920" height="1726" viewBox="0 0 1920 1726" fill="none" xmlns="http://www.w3.org/2000/svg">
<rect width="1920" height="1130" fill="url(#paint0_radial_231_2)"/>
<rect y="1096" width="1920" height="630" fill="url(#paint1_linear_231_2)"/>
<path d="M955.272 590.988C939.255 590.988 923.597 586.238 910.278 577.339C896.96 568.44 886.58 555.791 880.45 540.993C874.32 526.194 872.716 509.91 875.841 494.2C878.966 478.49 886.679 464.06 898.006 452.733C909.332 441.407 923.763 433.694 939.473 430.569C955.183 427.444 971.466 429.048 986.265 435.177C1001.06 441.307 1013.71 451.687 1022.61 465.006C1031.51 478.324 1036.26 493.982 1036.26 510C1036.22 531.467 1027.67 552.042 1012.49 567.222C997.315 582.401 976.739 590.947 955.272 590.988ZM955.272 444.513C942.32 444.513 929.659 448.353 918.89 455.549C908.12 462.745 899.726 472.973 894.77 484.939C889.813 496.905 888.516 510.073 891.043 522.776C893.57 535.479 899.807 547.148 908.966 556.307C918.124 565.465 929.793 571.702 942.496 574.229C955.2 576.756 968.367 575.459 980.333 570.503C992.3 565.546 1002.53 557.152 1009.72 546.383C1016.92 535.614 1020.76 522.952 1020.76 510C1020.72 492.644 1013.81 476.011 1001.53 463.739C989.261 451.466 972.628 444.553 955.272 444.513Z" fill="#D1DEFF" fill-opacity="0.52"/>
<path d="M955.272 866.5C907.61 866.5 864.752 803.26 840.495 697.395C832.022 659.448 826.35 620.931 823.522 582.152C821.74 558.902 820.887 534.335 820.887 510C820.887 485.665 821.74 461.408 823.522 437.925C826.344 399.121 832.017 360.577 840.495 322.605C846.261 296.976 854.035 271.84 863.745 247.43C864.516 245.518 866.014 243.991 867.911 243.185C869.808 242.378 871.947 242.358 873.859 243.129C875.77 243.9 877.297 245.398 878.104 247.295C878.911 249.192 878.931 251.331 878.16 253.243C868.786 276.891 861.322 301.252 855.84 326.092C847.542 363.301 841.973 401.067 839.177 439.087C837.472 462.337 836.62 485.587 836.62 510C836.62 534.413 837.472 557.818 839.177 580.99C841.976 618.984 847.545 656.724 855.84 693.908C877.772 790.783 915.98 851 955.272 851C994.565 851 1032.77 790.783 1054.86 693.908C1063.16 656.699 1068.73 618.933 1071.52 580.913C1073.23 557.663 1074.08 533.948 1074.08 510C1074.08 486.052 1073.23 462.182 1071.52 439.01C1068.72 401.016 1063.15 363.276 1054.86 326.092C1032.69 229.218 994.565 169 955.272 169C941.4 169 927.605 176.75 914.275 191.01C912.888 192.531 910.953 193.439 908.896 193.533C906.84 193.628 904.83 192.901 903.309 191.514C901.788 190.126 900.88 188.192 900.786 186.135C900.691 184.078 901.418 182.069 902.805 180.547C919.235 162.567 936.75 153.5 955.272 153.5C1002.86 153.5 1045.71 216.74 1069.97 322.605C1078.45 360.552 1084.12 399.069 1086.94 437.848C1088.73 461.098 1089.58 485.665 1089.58 510C1089.58 534.335 1088.73 558.592 1086.94 582.075C1084.12 620.879 1078.45 659.423 1069.97 697.395C1045.71 803.26 1002.86 866.5 955.272 866.5Z" fill="#D1DEFF" fill-opacity="0.52"/>
<path d="M719.13 723.358H718.588C682.783 720.8 658.525 709.02 646.513 688.25C622.72 646.943 655.968 578.2 735.25 504.342C735.468 504.143 735.701 503.962 735.948 503.8C764.326 477.665 794.609 453.678 826.545 432.035C845.843 418.86 866.458 405.917 887.77 393.285C909.083 380.652 930.55 370.035 951.63 359.573C986.678 342.581 1022.95 328.23 1060.13 316.638C1163.98 285.25 1240.16 290.443 1263.96 331.75C1275.27 351.203 1274.19 376.312 1260.86 406.15C1260.51 407.168 1259.95 408.102 1259.22 408.893C1258.49 409.684 1257.61 410.314 1256.62 410.744C1255.63 411.174 1254.57 411.394 1253.49 411.39C1252.42 411.385 1251.35 411.157 1250.37 410.72C1249.39 410.283 1248.51 409.645 1247.78 408.849C1247.06 408.053 1246.51 407.114 1246.17 406.094C1245.83 405.074 1245.71 403.993 1245.81 402.922C1245.91 401.851 1246.23 400.813 1246.75 399.873C1257.99 374.763 1259.31 354.458 1250.62 339.5C1230.94 305.4 1159.72 302.455 1064.63 331.75C1028.26 343.149 992.797 357.241 958.528 373.91C937.835 383.753 916.678 394.913 895.753 407.003C874.828 419.092 854.6 431.88 836 444.823C804.45 466.18 774.553 489.885 746.565 515.735L745.868 516.278C673.25 583.625 640.313 646.555 659.92 680.5C671.468 700.495 698.67 706.385 719.673 707.858C720.69 707.893 721.691 708.129 722.618 708.551C723.544 708.974 724.379 709.574 725.073 710.319C725.768 711.064 726.309 711.938 726.665 712.892C727.022 713.846 727.187 714.861 727.151 715.879C727.116 716.897 726.88 717.897 726.458 718.824C726.035 719.751 725.434 720.585 724.69 721.279C723.945 721.974 723.07 722.515 722.116 722.871C721.163 723.228 720.148 723.393 719.13 723.358Z" fill="#D1DEFF" fill-opacity="0.52"/>
<path d="M793.065 717.312C791.01 717.497 788.965 716.858 787.381 715.536C785.796 714.213 784.803 712.315 784.618 710.26C784.433 708.205 785.072 706.16 786.394 704.576C787.717 702.991 789.615 701.997 791.67 701.812C809.991 698.239 828.102 693.659 845.92 688.095C882.364 676.772 917.907 662.731 952.25 646.09C973.02 636.247 994.1 625.087 1015.03 612.997C1035.95 600.908 1056.26 588.12 1075.24 575.177C1106.78 553.802 1136.7 530.126 1164.76 504.342C1179.08 491.176 1192.64 477.203 1205.37 462.492C1206.7 460.93 1208.6 459.963 1210.65 459.803C1212.7 459.643 1214.73 460.304 1216.29 461.64C1217.85 462.976 1218.82 464.878 1218.98 466.927C1219.14 468.976 1218.48 471.005 1217.15 472.567C1204 487.718 1190.03 502.129 1175.3 515.735C1146.68 542.025 1116.17 566.167 1084 587.965C1064.7 601.14 1044.09 614.083 1022.78 626.715C1001.46 639.348 980.073 649.965 958.993 660.428C923.937 677.402 887.671 691.753 850.493 703.362C832.179 709.133 813.548 713.843 794.693 717.467C794.145 717.516 793.593 717.463 793.065 717.312Z" fill="#D1DEFF" fill-opacity="0.52"/>
<path d="M1177 723.745C1158.8 723.528 1140.65 721.765 1122.75 718.475C1053 706.075 969.532 673.37 888.08 626.25C714.945 526.43 608.847 397.005 646.512 331.75C665.19 299.432 715.332 288.66 787.795 301.525C857.545 313.925 941.012 346.63 1022.39 393.595C1103.84 440.637 1173.82 496.437 1219.55 550.765C1266.82 607.107 1282.63 655.932 1263.95 688.25C1250.47 711.5 1220.4 723.745 1177 723.745ZM733.157 311.755C696.267 311.755 670.46 321.21 659.92 339.5C627.68 395.3 735.715 520.54 895.83 612.92C975.732 659.42 1057.26 691.117 1125.38 703.207C1190.02 714.677 1235.67 706.385 1250.55 680.5C1265.43 654.615 1249.85 610.75 1208 560.762C1163.51 507.752 1095 453.192 1015.02 407.08C935.045 360.967 853.205 328.882 785.082 316.792C767.955 313.594 750.58 311.909 733.157 311.755Z" fill="#D1DEFF" fill-opacity="0.52"/>
<path d="M1234.58 483.34C1225.39 483.34 1216.4 480.613 1208.75 475.503C1201.1 470.394 1195.14 463.132 1191.62 454.635C1188.1 446.138 1187.18 436.788 1188.98 427.768C1190.77 418.748 1195.2 410.463 1201.7 403.96C1208.21 397.456 1216.49 393.028 1225.51 391.233C1234.53 389.439 1243.88 390.36 1252.38 393.88C1260.87 397.399 1268.14 403.359 1273.25 411.006C1278.36 418.653 1281.08 427.643 1281.08 436.84C1281.08 449.173 1276.18 461 1267.46 469.72C1258.74 478.441 1246.92 483.34 1234.58 483.34ZM1234.58 405.84C1228.45 405.84 1222.46 407.658 1217.36 411.064C1212.26 414.471 1208.29 419.312 1205.94 424.977C1203.6 430.641 1202.98 436.874 1204.18 442.888C1205.37 448.901 1208.33 454.425 1212.66 458.76C1217 463.096 1222.52 466.048 1228.53 467.244C1234.55 468.44 1240.78 467.827 1246.45 465.48C1252.11 463.134 1256.95 459.161 1260.36 454.063C1263.76 448.965 1265.58 442.971 1265.58 436.84C1265.61 432.749 1264.83 428.693 1263.29 424.905C1261.75 421.117 1259.47 417.672 1256.59 414.769C1253.7 411.866 1250.28 409.562 1246.5 407.989C1242.72 406.417 1238.67 405.607 1234.58 405.607V405.84Z" fill="#D1DEFF" fill-opacity="0.52"/>
<path d="M756.33 759.395C747.44 759.395 738.749 756.759 731.357 751.82C723.965 746.88 718.204 739.86 714.802 731.647C711.399 723.433 710.509 714.395 712.244 705.676C713.978 696.956 718.259 688.947 724.545 682.66C730.832 676.374 738.841 672.093 747.561 670.359C756.28 668.624 765.318 669.514 773.532 672.917C781.745 676.319 788.765 682.08 793.704 689.472C798.644 696.864 801.28 705.555 801.28 714.445C801.28 720.348 800.117 726.193 797.858 731.647C795.599 737.1 792.288 742.055 788.114 746.229C783.94 750.403 778.985 753.714 773.532 755.973C768.078 758.232 762.233 759.395 756.33 759.395ZM756.33 684.995C750.505 684.995 744.811 686.722 739.968 689.958C735.125 693.194 731.351 697.794 729.122 703.175C726.893 708.556 726.309 714.478 727.446 720.19C728.582 725.903 731.387 731.151 735.506 735.269C739.624 739.388 744.872 742.193 750.584 743.329C756.297 744.465 762.219 743.882 767.6 741.653C772.981 739.424 777.581 735.65 780.817 730.806C784.053 725.963 785.78 720.27 785.78 714.445C785.78 706.634 782.677 699.144 777.154 693.621C771.631 688.098 764.141 684.995 756.33 684.995Z" fill="#D1DEFF" fill-opacity="0.52"/>
<path d="M886.918 262C877.929 262.015 869.137 259.363 861.657 254.378C854.177 249.394 848.344 242.302 844.897 234C841.45 225.699 840.544 216.561 842.294 207.744C844.044 198.927 848.371 190.828 854.727 184.472C861.083 178.116 869.182 173.789 877.999 172.039C886.816 170.289 895.954 171.195 904.255 174.642C912.557 178.089 919.649 183.922 924.634 191.402C929.618 198.882 932.27 207.674 932.255 216.662C932.235 228.68 927.451 240.2 918.953 248.698C910.455 257.196 898.935 261.98 886.918 262ZM886.918 186.747C880.998 186.732 875.206 188.474 870.277 191.751C865.347 195.029 861.501 199.696 859.224 205.161C856.948 210.626 856.345 216.643 857.49 222.451C858.636 228.259 861.479 233.597 865.659 237.788C869.84 241.979 875.17 244.836 880.975 245.997C886.78 247.157 892.799 246.57 898.27 244.308C903.741 242.046 908.417 238.212 911.708 233.29C914.999 228.369 916.755 222.582 916.755 216.662C916.786 212.725 916.037 208.82 914.551 205.173C913.065 201.526 910.872 198.209 908.098 195.414C905.325 192.618 902.025 190.4 898.39 188.886C894.754 187.372 890.855 186.592 886.918 186.592V186.747Z" fill="#D1DEFF" fill-opacity="0.52"/>
<defs>
<radialGradient id="paint0_radial_231_2" cx="0" cy="0" r="1" gradientUnits="userSpaceOnUse" gradientTransform="translate(960 565) rotate(90) scale(565 960)">
<stop stop-color="white"/>
<stop offset="1" stop-color="#D1DEFF"/>
</radialGradient>
<linearGradient id="paint1_linear_231_2" x1="960" y1="1096" x2="960" y2="1726" gradientUnits="userSpaceOnUse">
<stop stop-color="#D1DEFF"/>
<stop offset="1" stop-color="white"/>
</linearGradient>
</defs>
</svg>
