<svg width="35" height="35" viewBox="0 0 35 35" fill="none" xmlns="http://www.w3.org/2000/svg">
<g clip-path="url(#clip0_40_103)">
<path fill-rule="evenodd" clip-rule="evenodd" d="M34.1149 22.6108V12.4303C34.1149 3.13154 31.9193 0.918836 22.6177 0.918836C-0.128787 0.772886 0.767212 -0.152164 0.920162 22.5933C0.920162 31.8921 3.11571 34.1044 12.4173 34.1044H20.138C30.0206 34.2752 34.3634 33.5959 34.1149 22.6108ZM27.7183 24.5988H25.2977C24.3814 24.5988 24.1049 23.8554 22.4623 22.2135C21.0273 20.8307 20.4222 20.6578 20.0592 20.6578C19.5577 20.6578 19.4194 20.796 19.4194 21.4873V23.665C19.4194 24.2526 19.2294 24.5984 17.6904 24.5984C15.1316 24.5984 12.3137 23.0427 10.3079 20.1737C7.29961 15.9737 6.48691 12.7933 6.48691 12.1538C6.48691 11.7909 6.62516 11.4626 7.31676 11.4626H9.73736C10.3597 11.4626 10.5844 11.7391 10.8266 12.3785C11.8188 15.6314 15.218 21.0442 15.2698 17.9267V14.3662C15.1662 12.7415 14.3017 12.6032 14.3017 12.0156C14.3017 11.7562 14.5439 11.4626 14.924 11.4626H18.7275C19.2462 11.4626 19.4191 11.7219 19.4191 12.3439V17.149C19.4849 18.3012 20.2017 17.8476 20.9234 17.0972C22.6695 15.1614 23.897 12.1538 23.897 12.1538C24.0527 11.7909 24.3292 11.4626 24.9515 11.4626H27.3721C28.0984 11.4626 28.2538 11.8255 28.0984 12.3442C27.8044 13.7614 24.8479 17.9096 24.8479 17.9271C24.5886 18.3247 24.485 18.5322 24.8479 18.9988C25.5448 19.8668 30.6226 24.4525 27.7183 24.5988Z" fill="white"/>
</g>
<defs>
<clipPath id="clip0_40_103">
<rect width="35" height="35" fill="white"/>
</clipPath>
</defs>
</svg>
