<svg width="24" height="22" viewBox="0 0 24 22" fill="none" xmlns="http://www.w3.org/2000/svg">
<path d="M21.21 1.512C20.118 1.512 19.194 2.31 18.984 3.36H11.886V2.898C11.886 1.302 10.584 0 8.988 0C7.602 0 6.426 0.966001 6.174 2.268C5.88 2.184 5.628 2.184 5.334 2.184C3.36 2.184 1.764 3.78 1.764 5.754C1.764 6.132 1.848 6.51 1.974 6.888C0.756 7.644 0 8.988 0 10.416C0 11.928 0.798 13.314 2.1 14.028C1.89 14.49 1.806 14.994 1.806 15.498C1.806 17.472 3.402 19.068 5.376 19.068C5.67 19.068 5.964 19.026 6.216 18.984C6.51 20.286 7.644 21.252 9.03 21.252C10.626 21.252 11.928 19.95 11.928 18.354V17.892H16.716C16.926 18.942 17.85 19.74 18.942 19.74C20.202 19.74 21.21 18.732 21.21 17.472C21.21 16.212 20.202 15.204 18.942 15.204C17.85 15.204 16.926 16.002 16.716 17.052H11.886V11.172H14.406C14.616 12.222 15.54 13.02 16.632 13.02C17.892 13.02 18.9 12.012 18.9 10.752C18.9 9.492 17.892 8.484 16.632 8.484C15.54 8.484 14.616 9.282 14.406 10.332H11.886V4.452H18.984C19.194 5.502 20.118 6.3 21.21 6.3C22.47 6.3 23.478 5.292 23.478 4.032C23.478 2.562 22.47 1.512 21.21 1.512ZM18.9 16.002C19.656 16.002 20.286 16.632 20.286 17.388C20.286 18.144 19.656 18.774 18.9 18.774C18.144 18.774 17.514 18.144 17.514 17.388C17.514 16.632 18.144 16.002 18.9 16.002ZM16.632 9.198C17.388 9.198 18.018 9.828 18.018 10.584C18.018 11.34 17.388 11.97 16.632 11.97C15.876 11.97 15.246 11.34 15.246 10.584C15.246 9.828 15.876 9.198 16.632 9.198ZM10.962 18.312C10.962 19.404 10.08 20.286 8.988 20.286C7.896 20.286 7.014 19.404 7.014 18.312C7.014 18.144 6.93 18.018 6.804 17.934C6.72 17.892 6.636 17.85 6.552 17.85C6.51 17.85 6.426 17.85 6.384 17.892C6.048 18.018 5.712 18.102 5.334 18.102C3.864 18.102 2.688 16.926 2.688 15.456C2.688 14.952 2.814 14.448 3.108 14.028C3.192 13.902 3.192 13.776 3.15 13.65C3.108 13.524 3.024 13.398 2.898 13.356C1.68 12.852 0.924 11.676 0.924 10.374C0.924 9.156 1.638 7.98 2.772 7.434C3.15 7.308 4.2 7.014 4.914 7.35C5.208 7.476 5.418 7.728 5.544 8.064C5.754 8.694 5.754 9.198 5.544 9.576C5.292 10.08 4.704 10.332 4.284 10.458C4.032 10.542 3.906 10.794 3.948 11.004C3.99 11.214 4.2 11.34 4.41 11.34C4.452 11.34 4.494 11.34 4.536 11.34C5.124 11.172 5.964 10.794 6.384 10.038C6.72 9.408 6.72 8.652 6.426 7.812C6.216 7.224 5.838 6.804 5.334 6.552C4.494 6.174 3.444 6.342 2.898 6.51C2.814 6.258 2.772 6.006 2.772 5.712C2.772 4.242 3.948 3.066 5.418 3.066C5.796 3.066 6.132 3.15 6.468 3.276C6.594 3.318 6.762 3.318 6.888 3.234C7.014 3.15 7.098 3.024 7.098 2.856C7.098 1.764 7.98 0.882 9.072 0.882C10.164 0.882 11.046 1.764 11.046 2.856V3.99C9.576 3.99 8.82 5.208 8.61 5.922C8.526 6.174 8.694 6.426 8.946 6.468C8.988 6.468 9.03 6.468 9.072 6.468C9.282 6.468 9.45 6.342 9.534 6.132C9.534 6.09 9.912 4.872 11.088 4.872V14.7H8.442C7.392 14.7 6.51 13.818 6.51 12.768C6.51 12.516 6.3 12.306 6.048 12.306C5.796 12.306 5.586 12.516 5.586 12.768C5.586 14.322 6.846 15.624 8.442 15.624H11.088V18.312H10.962ZM21.21 5.166C20.454 5.166 19.824 4.536 19.824 3.78C19.824 3.024 20.454 2.394 21.21 2.394C21.966 2.394 22.596 3.024 22.596 3.78C22.554 4.578 21.966 5.166 21.21 5.166Z" fill="white"/>
</svg>
